<svg width="77" height="71" viewBox="0 0 77 71" fill="none" xmlns="http://www.w3.org/2000/svg">
<g clip-path="url(#clip0_2304_391)">
<path d="M60.0822 25.3154C60.0822 25.4715 60.0635 25.6315 60.0241 25.7914L58.3795 32.5215C58.1463 33.4783 57.1493 34.0708 56.1553 33.8446L49.5643 31.8779L49.2424 31.7823C48.8675 32.0435 48.3439 32.1637 47.7967 32.071C46.84 31.9082 46.1777 31.1596 46.3174 30.3977C46.4572 29.6368 47.3459 29.1513 48.3026 29.3131C48.8498 29.4058 49.2995 29.6907 49.5594 30.0589L49.5643 30.0598L49.581 30.0627L55.3178 30.7451L55.8 25.1497C55.8916 24.0803 56.8206 23.2578 57.9367 23.2578C59.1472 23.2578 60.0822 24.209 60.0822 25.3154Z" fill="#ED9DA0"/>
<path d="M60.0821 25.3154C60.0821 25.4715 60.0634 25.6314 60.024 25.7914L58.6746 32.8054C58.4414 33.7623 57.4444 34.3547 56.4504 34.1286L49.8594 32.3663L50.1546 29.6216L55.1739 30.2841L55.7999 25.1497C55.8914 24.0803 56.8205 23.2578 57.9365 23.2578C59.1471 23.2578 60.0821 24.209 60.0821 25.3154Z" fill="#2F2E43"/>
<path d="M0.333984 70.4131H6.29655H11.5964H11.8095H16.4752H48.4271H56.0304H76.334" stroke="#090814" stroke-width="1.5" stroke-miterlimit="10"/>
<path d="M68.6428 62.2747L67.0508 63.4033L68.2244 64.9343L69.8164 63.8056L68.6428 62.2747Z" fill="#ED9DA0"/>
<path d="M70.6121 65.3909L67.2281 67.79C66.9388 67.995 66.5994 68.1374 66.2463 68.2017L65.4014 68.3556C65.2267 68.3874 65.0456 68.3191 64.9401 68.1814C64.8163 68.02 64.8199 67.7971 64.9486 67.6394L65.9731 66.3845L67.3217 63.7105L67.3295 63.7174C67.5244 63.8888 67.8205 64.1465 67.8427 64.1591C68.2592 64.2478 68.579 64.198 68.7934 64.0111C69.1673 63.6853 69.0919 63.0461 69.0911 63.0396L69.0905 63.0347L69.0949 63.0322C69.1968 62.9745 69.2949 62.9616 69.3866 62.9938C69.5813 63.0621 69.6829 63.3078 69.6974 63.3454C69.8874 63.3711 70.3817 63.916 70.4214 63.9601C70.7058 64.0097 70.9016 64.1123 71.0033 64.2652C71.0922 64.3989 71.1094 64.5694 71.0545 64.7719C70.9885 65.0156 70.8314 65.2354 70.6121 65.3909Z" fill="#2F2E43"/>
<path d="M54.9896 66.7422H53.0117V68.6442H54.9896V66.7422Z" fill="#ED9DA0"/>
<path d="M54.6527 70.3737H50.4484C50.0891 70.3737 49.728 70.2946 49.4041 70.1448L48.629 69.7866C48.4688 69.7125 48.3652 69.5541 48.3652 69.3831C48.3652 69.1826 48.5056 69.0052 48.7066 68.9517L50.3056 68.5263L53.0411 67.1436L53.0431 67.1535C53.0943 67.4027 53.1735 67.7791 53.1836 67.8019C53.4641 68.1109 53.7523 68.2534 54.0401 68.2253C54.5422 68.1763 54.8759 67.6188 54.8793 67.6132L54.8818 67.6089L54.8869 67.6094C55.0045 67.6211 55.0914 67.6667 55.1454 67.7449C55.2599 67.911 55.1901 68.1668 55.1786 68.2053C55.3157 68.3344 55.3773 69.0551 55.382 69.1132C55.5803 69.3154 55.6746 69.5097 55.6621 69.6908C55.6512 69.8492 55.5599 69.9963 55.3907 70.128C55.1871 70.2864 54.925 70.3737 54.6527 70.3737Z" fill="#2F2E43"/>
<path d="M63.0605 37.0098H53.5813L52.0703 67.2506H55.4086L57.5654 53.5047L66.2202 64.5014L69.38 61.7522L63.0605 53.5047V37.0098Z" fill="#2F2E43"/>
<path d="M60.6194 17.1355C60.6194 17.1355 63.2311 17.1301 62.2554 14.7101C61.2798 12.2901 59.4631 13.3737 59.4631 13.3737C59.4631 13.3737 58.6976 13.7625 58.8554 14.6301" fill="#2F2E43"/>
<path d="M60.8815 18.297C60.8815 16.4416 59.3174 14.9375 57.388 14.9375C55.4586 14.9375 53.8945 16.4416 53.8945 18.297C53.8945 19.8017 54.9233 21.0752 56.3414 21.5029L57.0167 25.795L60.4596 23.036C60.4596 23.036 59.7158 22.125 59.317 21.0977C60.2597 20.4961 60.8815 19.4666 60.8815 18.297Z" fill="#ED9DA0"/>
<path d="M59.067 21.1344C59.067 21.1344 59.5309 19.424 58.7723 18.6375C58.0155 17.8528 57.9177 19.0738 57.9177 19.0738L57.3716 18.9596C57.3716 18.9596 57.4666 17.7723 56.3981 17.5668L57.0867 16.1511C57.0867 16.1511 54.4504 16.6433 54.3778 16.3978C53.806 14.4658 59.2603 12.8154 60.767 15.7629C63.1104 20.3472 59.067 21.1344 59.067 21.1344Z" fill="#2F2E43"/>
<path d="M60.9786 32.8643L62.5268 37.2515L53.7676 37.1568L55.0735 33.1482L60.9786 32.8643Z" fill="#ED9DA0"/>
<path d="M60.1874 21.7295L56.3031 23.0281L52.6309 41.2588L60.1874 42.146L60.7384 39.3664L61.2637 42.146H63.8812L61.0592 24.0169C60.9329 23.2055 60.6363 22.4272 60.1874 21.7295Z" fill="#4C38C2"/>
<path d="M59.0986 43.1498L59.1662 40.1532L57.3468 40.1152L57.2792 43.1118C56.9398 43.4149 56.7157 43.8857 56.7036 44.4196C56.6826 45.3536 57.3171 46.1245 58.121 46.1412C58.9249 46.158 59.5936 45.4144 59.6147 44.4803C59.6267 43.9465 59.4241 43.4667 59.0986 43.1498Z" fill="#ED9DA0"/>
<path d="M56.5879 28.1514V42.6762H59.7476L60.6815 28.274" fill="#2F2E43"/>
<path d="M62.9491 43.5579C62.8937 43.5579 62.8382 43.556 62.7826 43.552C62.1186 43.504 61.5474 43.1617 61.0845 42.5346C59.3426 40.1742 55.8301 32.3631 55.8301 30.1418C55.8301 28.0191 56.3106 23.1542 56.3273 23.0813L59.8748 21.1924C61.5768 21.5766 62.7614 23.0754 62.6918 24.7562C62.5218 28.8627 62.9596 38.2239 65.824 42.1033L65.8477 42.1353L65.8194 42.1635C65.7602 42.2225 64.4035 43.5579 62.9491 43.5579Z" fill="#2F2E43"/>
<path d="M42.7026 70.5H18.8558C15.7486 70.5 13.2207 68.0691 13.2207 65.081V5.91902C13.2207 2.93095 15.7486 0.5 18.8558 0.5H42.7026C45.8098 0.5 48.3377 2.93095 48.3377 5.91902V65.081C48.3377 68.0691 45.8098 70.5 42.7026 70.5Z" fill="#2F2E41"/>
<path d="M42.7252 69.0373H18.8298C16.4984 69.0373 14.6016 67.2132 14.6016 64.9712V5.696C14.6016 3.45397 16.4984 1.62988 18.8298 1.62988H42.7252C45.0566 1.62988 46.9535 3.45397 46.9535 5.696V64.9712C46.9535 67.2132 45.0566 69.0373 42.7252 69.0373Z" fill="white"/>
<path d="M34.5104 5.48566H26.9063C26.0297 5.48566 25.3164 4.7998 25.3164 3.9567C25.3164 3.1136 26.0297 2.42773 26.9063 2.42773H34.5104C35.3871 2.42773 36.1004 3.1136 36.1004 3.9567C36.1004 4.7998 35.3871 5.48566 34.5104 5.48566Z" fill="#2F2E41"/>
<path d="M20.0098 17.0537H28.21" stroke="#090814" stroke-width="2" stroke-miterlimit="10"/>
<path d="M20.0098 20.043H37.2593" stroke="#090814" stroke-width="2" stroke-miterlimit="10"/>
<path d="M20.0098 18.6982H44.7186" stroke="#090814" stroke-width="2" stroke-miterlimit="10"/>
<path d="M18.1447 19.146C18.9171 19.146 19.5433 18.5438 19.5433 17.801C19.5433 17.0582 18.9171 16.4561 18.1447 16.4561C17.3723 16.4561 16.7461 17.0582 16.7461 17.801C16.7461 18.5438 17.3723 19.146 18.1447 19.146Z" fill="#4C38C2"/>
<path d="M20.0098 25.9023H28.21" stroke="#090814" stroke-width="2" stroke-miterlimit="10"/>
<path d="M20.0098 28.8916H37.2593" stroke="#090814" stroke-width="2" stroke-miterlimit="10"/>
<path d="M20.0098 27.5459H44.7186" stroke="#090814" stroke-width="2" stroke-miterlimit="10"/>
<path d="M18.1447 27.9946C18.9171 27.9946 19.5433 27.3925 19.5433 26.6497C19.5433 25.9069 18.9171 25.3047 18.1447 25.3047C17.3723 25.3047 16.7461 25.9069 16.7461 26.6497C16.7461 27.3925 17.3723 27.9946 18.1447 27.9946Z" fill="#4C38C2"/>
<path d="M20.0098 34.751H28.21" stroke="#090814" stroke-width="2" stroke-miterlimit="10"/>
<path d="M20.0098 37.7393H37.2593" stroke="#090814" stroke-width="2" stroke-miterlimit="10"/>
<path d="M20.0098 36.3945H44.7186" stroke="#090814" stroke-width="2" stroke-miterlimit="10"/>
<path d="M18.1447 36.8433C18.9171 36.8433 19.5433 36.2411 19.5433 35.4983C19.5433 34.7555 18.9171 34.1533 18.1447 34.1533C17.3723 34.1533 16.7461 34.7555 16.7461 35.4983C16.7461 36.2411 17.3723 36.8433 18.1447 36.8433Z" fill="#4C38C2"/>
</g>
<defs>
<clipPath id="clip0_2304_391">
<rect width="76" height="70" fill="white" transform="translate(0.333984 0.5)"/>
</clipPath>
</defs>
</svg>
