<svg width="77" height="61" viewBox="0 0 77 61" fill="none" xmlns="http://www.w3.org/2000/svg">
<g clip-path="url(#clip0_2304_316)">
<path d="M11.9281 44.4673L7.04857 42.7569C6.51137 40.0872 6.63183 37.3263 7.3995 34.7139C9.25062 39.1852 15.0242 40.4353 18.2299 44.0543C19.2211 45.1907 19.9447 46.5364 20.3471 47.9916C20.7494 49.4467 20.8203 50.9741 20.5544 52.4604L21.4887 56.017C19.0747 55.7392 16.7495 54.9397 14.6732 53.6735C12.5969 52.4073 10.8188 50.7046 9.46157 48.6825C8.71134 47.5406 8.10744 46.3085 7.66409 45.0151C9.77043 44.8653 11.9281 44.4673 11.9281 44.4673Z" fill="#F2F2F2"/>
<path d="M17.5304 33.7879L14.1228 29.8885C14.9655 27.2995 16.4254 24.956 18.3756 23.0615C17.7923 27.8677 22.2039 31.8081 23.2179 36.5417C23.5228 38.0205 23.4922 39.5492 23.1283 41.0145C22.7643 42.4798 22.0764 43.8442 21.1155 45.0065L20.1832 48.5636C18.2185 47.1293 16.5871 45.2846 15.4013 43.1568C14.2156 41.029 13.5037 38.6686 13.3148 36.2381C13.2223 34.8736 13.3014 33.5028 13.5502 32.1581C15.4571 33.0683 17.5304 33.7879 17.5304 33.7879Z" fill="#F2F2F2"/>
<path d="M46.0009 46.2881H21.3633C20.6394 46.2881 20.0508 46.4343 20.0508 46.615V56.2834H47.3168V46.615C47.3168 46.4343 46.7282 46.2881 46.0009 46.2881Z" fill="#F2F2F2"/>
<path d="M76.2369 56.3747L0.121042 56.4061C0.08894 56.4061 0.0581531 56.3933 0.0354534 56.3705C0.0127538 56.3477 0 56.3168 0 56.2846C0 56.2524 0.0127538 56.2215 0.0354534 56.1988C0.0581531 56.176 0.08894 56.1632 0.121042 56.1632L76.2369 56.1318C76.2689 56.1319 76.2996 56.1448 76.3222 56.1675C76.3449 56.1903 76.3576 56.2211 76.3576 56.2533C76.3576 56.2854 76.3449 56.3163 76.3222 56.339C76.2996 56.3618 76.2689 56.3746 76.2369 56.3747Z" fill="#CACACA"/>
<path d="M27.5779 55.6943L27.3477 57.5762L34.4727 59.3627L34.8125 56.5852L27.5779 55.6943Z" fill="#9E616A"/>
<path d="M28.9383 55.2383L28.7494 58.2668L27.4655 58.1087L25.1483 60.7247C25.0339 60.8539 24.8813 60.9431 24.7128 60.9791C24.5443 61.0151 24.3687 60.9962 24.2117 60.925C24.0547 60.8539 23.9244 60.7342 23.84 60.5835C23.7556 60.4329 23.7214 60.2591 23.7424 60.0875L24.1802 56.5082L25.5256 56.0476L24.2852 55.6503L24.4503 54.3008L28.9383 55.2383Z" fill="#2F2E41"/>
<path d="M48.3926 56.6214L50.2263 57.0798L52.8615 50.2021L50.1552 49.5254L48.3926 56.6214Z" fill="#9E616A"/>
<path d="M53.0728 59.6538L50.7672 57.0274L51.0803 55.7678L50.754 55.7066H50.752L48.7147 55.3252L48.1068 55.2109L46.6328 59.5661L47.9483 59.8955L48.4921 58.7083L48.7198 59.7986L48.7839 60.1036L52.2717 60.9756C52.4388 61.0174 52.6149 61.0045 52.7741 60.9388C52.9334 60.8731 53.0676 60.758 53.157 60.6104C53.2465 60.4628 53.2866 60.2903 53.2714 60.1182C53.2563 59.9461 53.1867 59.7834 53.0728 59.6538Z" fill="#2F2E41"/>
<path d="M33.0076 55.9058L33.6725 55.8008C32.9588 56.5464 32.2737 57.039 31.623 57.192L31.9382 56.0741L33.0076 55.9058Z" fill="#2F2E41"/>
<path d="M52.4282 52.5491C51.7989 53.9607 51.3455 54.8644 51.3455 54.8644L51.1209 54.7461L50.5292 54.435L49.1203 53.6935L48.8783 53.566L48.9474 52.2177L49.2545 46.2551L49.3846 43.742L44.014 46.5897L37.6594 49.9595C37.3992 50.4144 37.1406 50.8571 36.8838 51.2875L32.5664 48.3164L36.9478 41.9021L39.5015 40.7047L38.9505 40.5976C39.0913 40.3933 39.2506 40.2025 39.4262 40.0274L39.6194 39.9183C39.6194 39.9183 51.7705 33.203 55.2665 36.6463C55.568 36.9543 55.7942 37.3282 55.9272 37.7387C57.1258 41.1922 54.132 48.7305 52.4282 52.5491Z" fill="#2F2E41"/>
<path d="M49.7544 58.8657C49.4926 59.2583 49.1372 59.5791 48.7205 59.7989C48.3675 59.9927 47.9937 60.1456 47.6063 60.2548C42.4544 61.7654 31.1796 58.7637 31.1796 58.7637L31.6228 57.192L31.9379 56.0741L33.0074 55.9058L33.6722 55.8008L41.6238 54.5493L39.4331 53.0419L36.8835 51.2876L32.5662 48.3165L27.3918 45.9819C21.394 41.1882 26.4159 35.8132 26.4159 35.8132L29.7726 33.4265L30.8624 32.6514L37.5575 36.0885L39.5012 40.7048L40.099 42.1235L44.0138 46.5898L48.9472 52.2178L48.9858 52.2616C49.1285 52.3703 49.2627 52.4896 49.3874 52.6186C49.4331 52.6635 49.4809 52.7135 49.5297 52.7675C49.9731 53.2488 50.3133 53.8164 50.529 54.4351C50.6691 54.8431 50.7453 55.2704 50.7547 55.7019C50.7552 55.7026 50.7554 55.7035 50.7554 55.7044C50.7554 55.7053 50.7552 55.7062 50.7547 55.707C50.777 56.6055 50.5198 57.6652 49.7544 58.8657Z" fill="#2F2E41"/>
<path d="M24.1212 38.0813C23.8542 38.0004 23.7183 37.9019 23.6935 37.7715C23.6571 37.58 23.8716 37.4094 24.12 37.2116C24.2933 37.0738 24.7503 36.834 24.5832 36.7602C22.0502 35.6413 28.2085 19.7549 29.9955 17.9497C30.3586 17.5829 30.3153 16.8383 30.7992 16.1758C32.121 14.3666 33.2807 14.0388 35.5909 13.3859C35.7784 13.3329 35.9738 13.2774 36.177 13.2194C36.44 13.1441 36.1628 13.8935 36.2998 13.3911C36.4522 12.8326 36.6097 12.2551 36.988 11.979L37.0126 11.9609L37.043 11.9629C37.743 12.0094 40.0287 12.3943 41.201 13.2247L41.2171 13.2363L41.2265 13.2538C41.4427 13.6582 41.2898 14.2685 41.142 14.8586C41.0206 15.3431 41.3126 14.5766 41.4288 14.8256C42.3173 16.7289 43.8449 17.1598 43.8604 17.1642L43.9363 17.1847L43.9211 17.2621C44.3205 19.3395 41.5815 25.7755 40.9894 30.1094C40.3878 34.5124 43.8172 39.4714 38.7776 38.6378C38.7892 38.6761 40.6376 42.4832 40.6074 42.5135C40.1492 42.974 25.1275 38.3861 24.1212 38.0813Z" fill="#E6E6E6"/>
<path d="M57.4639 14.7232C57.5003 14.9313 57.4908 15.1449 57.436 15.349C57.3812 15.5531 57.2825 15.7426 57.1468 15.9042C57.0111 16.0659 56.8418 16.1957 56.6507 16.2846C56.4596 16.3735 56.2514 16.4192 56.0407 16.4186L54.3487 21.2671L52.7363 19.1436L54.5903 14.8649C54.6148 14.51 54.7681 14.1763 55.0214 13.9273C55.2746 13.6782 55.6101 13.5309 55.9643 13.5135C56.3186 13.496 56.6668 13.6095 56.9432 13.8324C57.2196 14.0554 57.4049 14.3723 57.4639 14.7232Z" fill="#9E616A"/>
<path d="M50.0181 28.2344L46.9511 27.569C41.4191 25.8115 39.5223 23.6426 38.9038 22.1322C38.2439 20.5207 38.8453 19.3412 38.8713 19.2919L38.887 19.2706L40.8711 17.3334C41.1231 17.0873 41.4244 16.8978 41.7549 16.7774C42.0855 16.6571 42.4378 16.6086 42.7885 16.6351C43.1391 16.6617 43.4801 16.7628 43.7889 16.9316C44.0977 17.1005 44.3672 17.3332 44.5795 17.6145L48.6085 22.952L50.4742 20.416L51.3791 19.6896L51.8673 18.3167L53.7394 16.2734L55.9068 17.2797L55.0908 22.2206L53.9989 22.8905L53.9474 23.6179L53.9295 23.6391L50.0181 28.2344Z" fill="#E6E6E6"/>
<path d="M34.6507 43.7185C34.6356 43.7185 34.6205 43.7182 34.6052 43.7176C34.427 43.7111 34.253 43.6615 34.098 43.5731C33.943 43.4846 33.8116 43.3599 33.715 43.2096C32.9911 42.1242 32.1028 41.1587 31.0822 40.3482C30.4643 39.8527 29.8186 39.392 29.1942 38.9464C27.5834 37.7973 26.0664 36.715 25.2244 35.2195C23.3884 31.9586 25.5505 27.4166 28.6393 25.3797C32.1039 23.0952 36.6609 22.7368 41.0693 22.6899C41.5275 22.685 41.9859 22.6826 42.4446 22.6826C50.3877 22.6857 58.314 23.4128 66.1259 24.8551C68.7235 25.336 71.4426 25.925 73.6276 27.3545C75.7996 28.7755 77.1198 31.0133 76.991 33.0557C76.803 36.0372 73.6528 38.2651 70.7842 38.8475C68.05 39.4023 65.2096 39.0274 62.2026 38.6304C61.5387 38.5428 60.8523 38.4522 60.1736 38.3734C52.7967 37.518 38.9388 40.1548 38.3525 40.2675L37.7708 40.3792L35.514 43.2931C35.4125 43.4259 35.2817 43.5334 35.132 43.6072C34.9823 43.681 34.8176 43.7191 34.6507 43.7185Z" fill="#4C38C2"/>
<path d="M67.5016 29.1738H36.3221C36.1423 29.1736 35.97 29.1018 35.8429 28.9741C35.7159 28.8465 35.6445 28.6735 35.6445 28.4931C35.6445 28.3128 35.7159 28.1398 35.8429 28.0121C35.97 27.8845 36.1423 27.8127 36.3221 27.8125H67.5016C67.6814 27.8127 67.8537 27.8845 67.9807 28.0121C68.1078 28.1398 68.1791 28.3128 68.1791 28.4931C68.1791 28.6735 68.1078 28.8465 67.9807 28.9741C67.8537 29.1018 67.6814 29.1736 67.5016 29.1738Z" fill="white"/>
<path d="M67.5016 33.3515H36.3221C36.233 33.3517 36.1447 33.3342 36.0623 33.3001C35.9799 33.266 35.905 33.216 35.8419 33.1528C35.7788 33.0897 35.7287 33.0147 35.6945 32.9321C35.6603 32.8495 35.6427 32.761 35.6426 32.6716C35.6425 32.5822 35.66 32.4936 35.694 32.411C35.728 32.3283 35.7779 32.2532 35.8409 32.1899C35.9039 32.1267 35.9787 32.0765 36.061 32.0422C36.1433 32.0079 36.2316 31.9903 36.3207 31.9902H67.5016C67.6814 31.9905 67.8537 32.0623 67.9808 32.1899C68.1078 32.3175 68.1792 32.4905 68.1792 32.6709C68.1792 32.8512 68.1078 33.0242 67.9808 33.1519C67.8537 33.2795 67.6814 33.3513 67.5016 33.3515Z" fill="white"/>
<path d="M39.9556 37.5292H36.3221C36.1423 37.529 35.97 37.4572 35.8429 37.3296C35.7159 37.202 35.6445 37.029 35.6445 36.8486C35.6445 36.6682 35.7159 36.4952 35.8429 36.3676C35.97 36.24 36.1423 36.1682 36.3221 36.168H39.9556C40.1354 36.1682 40.3077 36.24 40.4348 36.3676C40.5618 36.4952 40.6332 36.6682 40.6332 36.8486C40.6332 37.029 40.5618 37.202 40.4348 37.3296C40.3077 37.4572 40.1354 37.529 39.9556 37.5292Z" fill="white"/>
<path d="M57.5209 14.9133C60.0857 14.9133 62.1648 12.8273 62.1648 10.254C62.1648 7.68077 60.0857 5.59473 57.5209 5.59473C54.9561 5.59473 52.877 7.68077 52.877 10.254C52.877 12.8273 54.9561 14.9133 57.5209 14.9133Z" fill="white"/>
<path d="M57.521 14.9705C56.5913 14.9705 55.6824 14.6939 54.9094 14.1756C54.1364 13.6574 53.5339 12.9209 53.1781 12.0591C52.8224 11.1973 52.7293 10.2491 52.9106 9.3342C53.092 8.41935 53.5397 7.57901 54.1971 6.91944C54.8545 6.25986 55.6921 5.81069 56.6039 5.62871C57.5157 5.44673 58.4609 5.54013 59.3198 5.89708C60.1787 6.25403 60.9129 6.85851 61.4294 7.63408C61.9459 8.40965 62.2216 9.32147 62.2216 10.2542C62.2202 11.5046 61.7245 12.7034 60.8433 13.5875C59.962 14.4717 58.7672 14.969 57.521 14.9705Z" fill="#3F3D56"/>
<path d="M57.1731 12.1156C57.1632 12.1156 57.1533 12.1153 57.1434 12.1148C57.0559 12.1105 56.9704 12.0874 56.8927 12.0469C56.815 12.0064 56.747 11.9495 56.6932 11.8801L55.9171 10.879C55.8681 10.8159 55.832 10.7436 55.8108 10.6664C55.7897 10.5892 55.7839 10.5086 55.7937 10.4291C55.8036 10.3497 55.829 10.273 55.8685 10.2034C55.9079 10.1338 55.9606 10.0727 56.0236 10.0235L56.0516 10.0017C56.1145 9.95251 56.1866 9.91624 56.2635 9.89499C56.3405 9.87373 56.4209 9.8679 56.5001 9.87783C56.5793 9.88776 56.6558 9.91326 56.7252 9.95286C56.7945 9.99246 56.8555 10.0454 56.9044 10.1086C56.9436 10.1591 56.9932 10.2005 57.0499 10.23C57.1065 10.2595 57.1688 10.2764 57.2325 10.2795C57.2962 10.2826 57.3599 10.2719 57.4191 10.2481C57.4783 10.2242 57.5317 10.1879 57.5756 10.1414L59.1513 8.47235C59.2622 8.35513 59.415 8.28684 59.576 8.28245C59.7371 8.27806 59.8933 8.33793 60.0104 8.44893L60.0362 8.47364C60.0942 8.52869 60.1407 8.59466 60.1732 8.66777C60.2058 8.74088 60.2236 8.81971 60.2258 8.89974C60.2279 8.97977 60.2143 9.05945 60.1858 9.13421C60.1572 9.20898 60.1143 9.27736 60.0594 9.33547L57.614 11.9252C57.5573 11.9853 57.4889 12.0332 57.4131 12.066C57.3373 12.0987 57.2556 12.1156 57.1731 12.1156Z" fill="white"/>
<path d="M33.6375 34.3959C33.4297 34.3614 33.2319 34.2816 33.0582 34.1621C32.8844 34.0427 32.7389 33.8864 32.6318 33.7044C32.5248 33.5224 32.4588 33.3191 32.4385 33.1087C32.4183 32.8984 32.4442 32.6861 32.5146 32.4869L28.5156 29.2788L31.0468 28.4561L34.4562 31.6287C34.7819 31.7694 35.0448 32.0252 35.1952 32.3474C35.3455 32.6697 35.3728 33.0361 35.2719 33.3772C35.171 33.7182 34.9488 34.0104 34.6476 34.1981C34.3464 34.3859 33.987 34.4562 33.6375 34.3959Z" fill="#9E616A"/>
<path d="M23.3984 22.8698L25.0403 20.1869C28.5259 15.5324 31.194 14.4553 32.8193 14.3703C34.5534 14.2796 35.4634 15.2396 35.5012 15.2806L35.5159 15.3025L36.6804 17.8225C36.8283 18.1426 36.9067 18.4906 36.9104 18.8434C36.9141 19.1962 36.843 19.5458 36.7018 19.8689C36.5606 20.1921 36.3526 20.4814 36.0915 20.7178C35.8304 20.9541 35.5222 21.1321 35.1874 21.2399L28.8331 23.2856L30.5998 25.8919L30.9831 26.9892L32.1124 27.9062L33.4137 30.3553L31.7493 32.0738L27.3732 29.6643L27.105 28.4087L26.438 28.1189L26.424 28.0949L23.3984 22.8698Z" fill="#E6E6E6"/>
<path d="M46.0081 12.2419L46.0122 12.2422C46.2319 12.2613 46.45 12.192 46.6187 12.0496C46.7875 11.9073 46.8929 11.7035 46.9119 11.4831L47.3139 6.84658C47.3868 6.01597 47.2924 5.17914 47.0364 4.38586C46.5347 2.8376 45.4569 1.5433 44.0276 0.772697C43.2895 0.375862 42.479 0.133064 41.645 0.0589349C38.2327 -0.244333 36.9912 0.476545 34.9191 5.70876C32.8471 10.941 34.5165 10.3524 34.5165 10.3524C34.5067 10.4641 34.5194 10.5767 34.5539 10.6834C34.6216 10.8916 34.7668 11.0655 34.9592 11.1687C35.058 11.2216 35.1663 11.254 35.2778 11.2641C39.3161 12.2654 43.3913 13.3206 46.0088 12.2419L46.0081 12.2419Z" fill="#2F2E41"/>
<path d="M38.4528 4.4706C37.9517 5.22521 37.6847 6.1119 37.6855 7.01866C37.6864 7.92541 37.9551 8.81158 38.4576 9.56523C38.9602 10.3189 39.6741 10.9062 40.5091 11.253C41.3442 11.5999 42.2629 11.6906 43.1494 11.5139C43.7362 11.3988 44.2944 11.168 44.7916 10.835C45.2889 10.5019 45.7154 10.0731 46.0463 9.57347C46.5463 8.81911 46.8126 7.93309 46.8114 7.02714C46.8103 6.12118 46.5418 5.23585 46.0399 4.48276C45.5379 3.72968 44.825 3.14256 43.9909 2.79543C43.1569 2.44831 42.239 2.35672 41.3532 2.53221C40.7659 2.64664 40.2071 2.87692 39.7092 3.2097C39.2113 3.54247 38.7842 3.97111 38.4527 4.47077L38.4528 4.4706Z" fill="#9E616A"/>
<path d="M48.7469 7.35199C48.8044 6.69507 48.7298 6.03324 48.5273 5.40584C48.4712 3.86816 48.0172 2.47807 46.148 2.54898C45.5679 2.23739 44.9314 2.04604 44.2761 1.98631L43.3516 1.90092C43.3412 1.89995 43.3308 1.89902 43.3204 1.89812C42.0269 1.78601 40.7419 2.19406 39.7482 3.0325C38.7545 3.87094 38.1335 5.07109 38.0217 6.36893L38.0137 6.4618L39.9697 6.64052L40.799 4.82864L40.77 6.71402L41.7802 6.80672L42.1984 5.89258L42.184 6.84319C43.6918 8.15778 45.9653 8.21208 48.7379 7.44496L48.7469 7.35199Z" fill="#2F2E41"/>
<path d="M42.5239 11.7904C42.5415 11.943 42.5162 12.0974 42.4506 12.2362C42.4176 12.3073 42.3748 12.3734 42.3236 12.4326C42.2797 12.483 42.23 12.528 42.1756 12.5667C42.0144 12.6809 41.8179 12.7338 41.6214 12.7157C41.6092 12.7146 41.597 12.7131 41.5848 12.7115C41.5726 12.7099 41.5604 12.7079 41.5482 12.7057C41.536 12.7036 41.5238 12.7011 41.5117 12.6983C41.4996 12.6956 41.4874 12.6925 41.4753 12.6893L40.7918 12.502L40.013 10.3682L39.8502 12.2462L36.7422 11.4003L37.4333 3.43066L42.7243 3.9182L42.5802 4.05926C42.1015 4.53299 41.7623 5.13005 41.6 5.78472C41.439 6.4481 41.3925 7.13426 41.4625 7.81341C41.5283 8.50017 41.6596 9.17901 41.8546 9.84059C42.0245 10.4264 42.2279 11.002 42.4637 11.5643C42.4942 11.6365 42.5145 11.7126 42.5239 11.7904Z" fill="#2F2E41"/>
</g>
<defs>
<clipPath id="clip0_2304_316">
<rect width="77" height="61" fill="white"/>
</clipPath>
</defs>
</svg>
