<svg width="77" height="51" viewBox="0 0 77 51" fill="none" xmlns="http://www.w3.org/2000/svg">
<g clip-path="url(#clip0_2304_348)">
<path d="M27.0727 48.395C27.0123 48.3977 26.9524 48.3824 26.9013 48.3512C26.8501 48.3201 26.8102 48.2745 26.7868 48.2208C26.7635 48.167 26.7579 48.1077 26.7707 48.0507C26.7836 47.9938 26.8143 47.942 26.8588 47.9025L26.879 47.8251C26.8764 47.8189 26.8737 47.8127 26.871 47.8065C26.8101 47.668 26.708 47.5499 26.5776 47.4671C26.4472 47.3843 26.2942 47.3404 26.138 47.3409C25.9817 47.3415 25.8291 47.3865 25.6994 47.4703C25.5696 47.554 25.4684 47.6728 25.4086 47.8117C25.1694 48.3662 24.8649 48.9216 24.7899 49.5079C24.7569 49.767 24.7708 50.0297 24.8311 50.2843C24.2693 49.1048 23.9776 47.8228 23.9757 46.5253C23.9756 46.1997 23.9944 45.8743 24.032 45.5507C24.0631 45.2855 24.1062 45.0221 24.1614 44.7606C24.4625 43.3418 25.109 42.0119 26.0477 40.8803C26.5021 40.6417 26.8695 40.2747 27.1005 39.8289C27.1842 39.6687 27.2434 39.4976 27.2762 39.321C27.2249 39.3275 27.0829 38.5762 27.1216 38.5301C27.0501 38.4258 26.9223 38.3739 26.8443 38.2721C26.4563 37.7658 25.9218 37.8542 25.6427 38.5422C25.0466 38.8318 25.0409 39.312 25.4066 39.7739C25.6393 40.0678 25.6713 40.4654 25.8755 40.78C25.8545 40.8059 25.8326 40.8309 25.8116 40.8568C25.4276 41.3321 25.093 41.8424 24.8124 42.3805C24.8806 41.7777 24.7992 41.1679 24.5748 40.6013C24.3474 40.0732 23.9211 39.6285 23.5457 39.172C23.0949 38.6236 22.1703 38.8629 22.0908 39.558C22.0901 39.5648 22.0893 39.5715 22.0886 39.5782C22.1443 39.6085 22.1989 39.6406 22.2523 39.6746C22.3194 39.7178 22.3714 39.7794 22.4014 39.8515C22.4315 39.9235 22.4383 40.0027 22.4208 40.0785C22.4034 40.1543 22.3625 40.2233 22.3036 40.2764C22.2448 40.3295 22.1706 40.3642 22.0909 40.376L22.0827 40.3772C22.1026 40.5707 22.1377 40.7623 22.1877 40.9506C21.7062 42.7432 22.7458 43.396 24.2303 43.4254C24.2631 43.4415 24.295 43.4577 24.3278 43.4731C24.0459 44.242 23.8691 45.0429 23.8018 45.8556C23.7637 46.3351 23.766 46.8168 23.8085 47.296L23.806 47.279C23.6984 46.7462 23.4031 46.2654 22.97 45.9179C22.3266 45.4092 21.4176 45.2219 20.7235 44.813C20.6498 44.7674 20.564 44.7431 20.4764 44.7429C20.3887 44.7427 20.3028 44.7666 20.2288 44.8118C20.1548 44.8571 20.0958 44.9217 20.0587 44.9982C20.0217 45.0746 20.0081 45.1597 20.0196 45.2433C20.0205 45.2493 20.0215 45.2552 20.0224 45.2612C20.1259 45.3018 20.2267 45.3485 20.3241 45.4011C20.3798 45.4314 20.4344 45.4635 20.4878 45.4975C20.5549 45.5407 20.6069 45.6023 20.637 45.6744C20.667 45.7464 20.6738 45.8256 20.6563 45.9014C20.6389 45.9772 20.598 46.0462 20.5392 46.0993C20.4803 46.1524 20.4061 46.1871 20.3264 46.1989L20.3182 46.2001C20.3123 46.2009 20.3073 46.2018 20.3014 46.2026C20.4782 46.6089 20.7263 46.9828 21.0349 47.3081C21.336 48.8729 22.6293 49.0214 24.0127 48.5657H24.0135C24.1653 49.2005 24.3852 49.8185 24.6698 50.4096H27.014C27.0224 50.3845 27.03 50.3587 27.0375 50.3336C26.8205 50.3467 26.6027 50.3342 26.3889 50.2964C26.5628 50.091 26.7367 49.8839 26.9107 49.6785C26.9145 49.6747 26.9182 49.6706 26.9216 49.6664C27.0098 49.5612 27.0989 49.4569 27.1871 49.3518L27.1871 49.3517C27.1918 49.0294 27.1533 48.7078 27.0727 48.395Z" fill="#F2F2F2"/>
<path d="M9.04102 44.9822L9.68783 45.6402L12.6912 43.4985L11.7366 42.5273L9.04102 44.9822Z" fill="#A0616A"/>
<path d="M10.1005 45.3458L9.36825 44.6837L9.18844 44.5215L7.32422 45.9561L7.80916 46.4494L8.37997 46.097L8.11774 46.7634L9.40347 48.0713C9.46507 48.1341 9.54589 48.1762 9.63414 48.1916C9.72239 48.207 9.81344 48.1948 9.894 48.1569C9.97456 48.119 10.0404 48.0573 10.082 47.9808C10.1235 47.9042 10.1385 47.817 10.1249 47.7317L9.84742 46.0038L10.3364 45.5587L10.1005 45.3458Z" fill="#2F2E41"/>
<path d="M23.2567 21.0244L23.0517 23.1793C23.0517 23.1793 22.6937 24.8028 22.9416 24.6712C23.1894 24.5396 22.745 25.1319 22.8621 25.6455C22.9791 26.1591 21.8623 29.989 22.3681 29.5923C22.874 29.1955 22.0758 31.9364 21.571 33.2886C21.4165 33.7066 21.2577 34.1297 21.0978 34.5498C21.0663 34.6348 21.0347 34.7188 21.0022 34.8038C20.795 35.3504 20.5878 35.8888 20.3891 36.3969C20.3607 36.4678 20.3334 36.5386 20.306 36.6085C20.305 36.6105 20.305 36.6125 20.3039 36.6125C19.6498 38.2694 19.0893 39.5731 18.8654 39.7887C18.7487 39.901 16.8969 41.1885 15.0303 42.4779C13.0713 43.8312 11.0964 45.1875 11.0964 45.1875L9.25195 43.3251C9.25195 43.3251 9.29611 43.313 9.37919 43.2887C9.53272 43.2462 9.81666 43.1662 10.1889 43.0599C11.741 42.6196 9.76932 41.9344 11.1785 41.4445C11.5759 41.3069 11.8409 41.1996 11.9008 41.1429C12.251 40.814 12.7211 40.0296 12.943 40.3585C13.1648 40.6875 14.1712 38.2431 14.4614 38.0012C14.6171 37.8706 15.125 37.2603 15.5603 36.7239C15.9346 36.2623 16.2564 35.8544 16.2564 35.8544C16.2564 35.8544 16.2628 35.6358 16.2722 35.2876C16.2859 34.7725 16.3059 33.9718 16.3269 33.1702C16.3259 33.1692 16.3259 33.1692 16.3269 33.1692C16.3343 32.8676 16.3416 32.5659 16.349 32.2795C16.3543 32.0578 16.3595 31.8443 16.3648 31.6469C16.3784 31.0558 16.3879 30.6085 16.3879 30.4971C16.3879 30.1317 16.3879 30.4162 16.6876 30.1955C16.7323 30.1617 16.7748 30.1252 16.8148 30.0862C16.8789 30.0307 16.938 29.9701 16.9915 29.905C17.0136 29.8595 16.8758 29.9212 16.697 29.8868C16.6002 29.8681 16.5107 29.824 16.4384 29.7593C16.0619 29.4334 16.4678 28.4314 16.4678 28.4314C15.6118 26.7835 15.6739 25.4323 16.0745 24.3908C16.3741 23.6434 16.8496 22.9731 17.4636 22.4323C17.6973 22.218 17.952 22.0258 18.224 21.8584L18.2503 21.7218L18.5394 20.2147C18.6932 20.1334 18.8531 20.0634 19.0179 20.0052C19.5315 19.8278 20.0826 19.775 20.6225 19.8514C21.1591 19.9261 21.6786 20.088 22.1589 20.3301C22.5515 20.5199 22.9199 20.7529 23.2567 21.0244Z" fill="#2F2E41"/>
<path d="M15.1797 48.3397L16.1167 48.4236L16.9064 44.907L15.5232 44.7832L15.1797 48.3397Z" fill="#A0616A"/>
<path d="M17.8794 49.7182L16.4871 48.5957L16.5503 47.95L16.2264 47.9399L15.2232 47.9085H15.2221L14.9761 47.9004L14.5586 50.1616L15.2621 50.2243L15.4482 49.5968L15.708 50.2648L16.0802 50.2982L17.5703 50.4318C17.5829 50.4328 17.5966 50.4338 17.6092 50.4338C17.6684 50.4339 17.727 50.4218 17.7811 50.3985C17.8351 50.3751 17.8833 50.3409 17.9226 50.2982C17.9836 50.2339 18.0209 50.1521 18.0288 50.0654C18.0349 50.0002 18.0246 49.9346 17.9985 49.8741C17.9725 49.8136 17.9317 49.7601 17.8794 49.7182Z" fill="#2F2E41"/>
<path d="M20.3883 36.3967C20.0318 38.2642 18.5228 42.6427 17.6101 45.2055C17.1947 46.3765 16.9045 47.1691 16.9045 47.1691L16.4313 47.0254H16.4302L15.6299 46.7824L15.3387 46.6933H15.3376L14.9843 46.5851C14.9843 46.5851 15.0253 44.4939 15.0295 42.4777C15.0326 41.6326 15.0284 40.7996 15.0116 40.1397C14.9927 39.42 14.9601 38.9049 14.9065 38.8026C14.6846 38.3836 15.0558 38.339 15.448 38.2338C15.8413 38.1275 15.5342 37.9676 15.3817 37.6275C15.2787 37.4008 15.4817 37.0982 15.6257 36.9261C15.6655 36.8777 15.708 36.8314 15.753 36.7874C15.753 36.7874 15.6836 36.7641 15.5595 36.7237C15.9338 36.2621 16.2556 35.8542 16.2556 35.8542C16.2556 35.8542 16.2619 35.6356 16.2714 35.2874C16.2851 34.7723 16.3051 33.9716 16.3261 33.17C16.325 33.169 16.325 33.169 16.3261 33.169C16.3334 32.8674 16.3408 32.5657 16.3482 32.2793C16.9497 32.7236 17.5343 33.1589 18.0643 33.5617C18.065 33.5622 18.0655 33.5628 18.0659 33.5635C18.0662 33.5642 18.0664 33.565 18.0664 33.5658C19.3399 34.5344 20.2958 35.3117 20.4304 35.5587C20.4914 35.67 20.4703 35.9676 20.3883 36.3967Z" fill="#2F2E41"/>
<path d="M51.7383 3.4247C51.9136 3.40892 52.0884 3.4596 52.2254 3.56596C52.3625 3.67233 52.4511 3.82597 52.4722 3.9942C52.476 4.02846 52.4768 4.06296 52.4746 4.09735L54.6431 4.98867L54.5604 6.20691L51.7269 4.67678C51.5795 4.65708 51.4429 4.59095 51.3386 4.48872C51.2344 4.38648 51.1682 4.25389 51.1504 4.11164C51.1411 4.0306 51.1485 3.94859 51.1721 3.87029C51.1957 3.792 51.2351 3.71895 51.2881 3.65531C51.341 3.59167 51.4065 3.5387 51.4807 3.49941C51.5549 3.46013 51.6365 3.4353 51.7207 3.42634C51.7265 3.42572 51.7324 3.42517 51.7383 3.4247Z" fill="#FFB6B6"/>
<path d="M66.4917 10.9447C66.4382 10.7085 66.3386 10.4842 66.1983 10.2837C66.1594 10.2267 66.1169 10.1719 66.0711 10.1198C65.9008 9.92444 65.742 9.74529 65.5948 9.58536C65.5054 9.48513 65.4181 9.39202 65.3361 9.30603C64.8597 8.80297 64.5474 8.53679 64.4044 8.5145C64.335 8.50338 64.2666 8.49527 64.2003 8.48717C63.8607 8.44669 63.6146 8.41733 63.6073 8.07217C63.6066 8.02272 63.6101 7.9733 63.6178 7.9244C63.6305 7.8423 63.6492 7.76113 63.6735 7.6815C63.6875 7.63635 63.6984 7.59038 63.7061 7.54386C63.7167 7.48416 63.7125 7.43958 63.6788 7.41225C63.6367 7.37889 63.5663 7.38393 63.4338 7.43454C63.4128 7.44264 63.3886 7.45174 63.3633 7.46286C63.3549 7.46592 63.3465 7.46997 63.337 7.47402C63.3202 7.48109 63.3013 7.4892 63.2824 7.49829C63.1236 7.57119 62.8785 7.58028 62.5989 7.55295C61.7734 7.472 60.6566 7.07119 60.6429 7.0661L53.61 4.43555L53.5449 4.53676L53.3903 4.77764L53.3367 4.86062L53.2757 4.95576L53.0096 5.36872L52.875 5.57723L55.1464 7.22602L55.3935 7.40517L55.6059 7.56006L59.9426 10.7088L61.5599 11.7362L61.9206 11.9649L63.458 12.9406C63.679 13.0811 63.9269 13.1776 64.1873 13.2244C64.4476 13.2712 64.7151 13.2673 64.9739 13.213C65.2326 13.1586 65.4775 13.0549 65.6939 12.908C65.9104 12.7611 66.094 12.574 66.2341 12.3576C66.5071 11.9366 66.5995 11.43 66.4917 10.9447Z" fill="#E6E6E6"/>
<path d="M76.5609 50.5003H0.771172C0.743283 50.5003 0.716536 50.4896 0.696815 50.4706C0.677095 50.4517 0.666016 50.4259 0.666016 50.3991C0.666016 50.3722 0.677095 50.3465 0.696815 50.3275C0.716536 50.3085 0.743283 50.2979 0.771172 50.2979H76.5609C76.5887 50.2979 76.6155 50.3085 76.6352 50.3275C76.6549 50.3465 76.666 50.3722 76.666 50.3991C76.666 50.4259 76.6549 50.4517 76.6352 50.4706C76.6155 50.4896 76.5887 50.5003 76.5609 50.5003Z" fill="#E6E6E6"/>
<path d="M18.0078 17.3818L18.2049 19.1412L18.089 21.448L23.3978 20.8411L23.8966 17.3818L23.261 17.3879L18.0078 17.3818Z" fill="#FFB6B6"/>
<path d="M22.5237 11.699L20.5257 10.1808L19.4769 10.1221L17.9207 11.0817L17.5396 12.9529L16.6384 15.06L17.9602 20.7464C17.9602 20.7464 18.0842 21.1545 17.7593 21.2035C17.4344 21.2525 17.4734 21.854 17.4734 21.854C17.4734 21.854 17.5396 22.3753 17.2241 22.4212C16.9086 22.4671 16.0674 22.4671 16.8035 23.378C17.5396 24.2889 23.3617 20.8436 23.3617 20.8436L24.2073 16.573C24.2073 16.573 25.8472 14.4529 24.0812 13.2387L22.5237 11.699Z" fill="#E6E6E6"/>
<path d="M13.8014 24.61C13.7133 24.5043 13.6504 24.3812 13.6172 24.2496C13.5839 24.1179 13.581 23.9808 13.6087 23.848C13.6364 23.7151 13.694 23.5897 13.7775 23.4806C13.861 23.3716 13.9683 23.2814 14.092 23.2166L16.6051 15.0986L18.1765 15.8601L15.4397 23.6411C15.5391 23.8482 15.5561 24.0832 15.4876 24.3016C15.419 24.5199 15.2696 24.7065 15.0677 24.826C14.8657 24.9454 14.6253 24.9894 14.3919 24.9496C14.1585 24.9098 13.9484 24.789 13.8014 24.61Z" fill="#A0616A"/>
<path d="M18.2811 11.0073C18.2811 11.0073 17.8319 10.7775 17.5247 11.7719C17.2787 12.568 15.2827 17.3097 15.2572 18.4625C15.0929 18.496 14.9449 18.5812 14.8365 18.7046C14.728 18.828 14.6653 18.9826 14.6582 19.144L17.1261 19.4624C17.5574 19.1123 17.6705 18.6394 17.5036 18.4991L18.0395 17.0905L20.2749 12.6087L18.6089 11.1679L18.2811 11.0073Z" fill="#E6E6E6"/>
<path d="M31.4679 21.9416C31.4998 21.8096 31.5012 21.6725 31.4721 21.54C31.4429 21.4074 31.3839 21.2826 31.2993 21.1743C31.2146 21.0661 31.1063 20.977 30.982 20.9134C30.8577 20.8498 30.7204 20.8132 30.5798 20.8062L24.8147 14.4688L23.5918 15.8733L29.5554 21.7499C29.5588 21.978 29.649 22.197 29.8089 22.3654C29.9689 22.5337 30.1874 22.6398 30.4232 22.6634C30.6589 22.687 30.8955 22.6266 31.088 22.4936C31.2806 22.3606 31.4157 22.1642 31.4679 21.9416Z" fill="#A0616A"/>
<path d="M21.3165 11.5415C21.3165 11.5415 21.6183 11.1473 22.3421 11.916C22.9216 12.5314 26.8517 15.976 27.3926 17.0049C27.5558 16.9667 27.7275 16.9819 27.8807 17.048C28.0339 17.1141 28.1599 17.2274 28.2389 17.37L26.1567 18.6843C25.6106 18.5481 25.2961 18.1689 25.3835 17.9729L24.2675 16.9258L20.2383 13.8153L21.0931 11.8227L21.3165 11.5415Z" fill="#E6E6E6"/>
<path d="M42.8157 28.9408C50.9464 28.9408 57.5376 22.5966 57.5376 14.7707C57.5376 6.94476 50.9464 0.600586 42.8157 0.600586C34.685 0.600586 28.0938 6.94476 28.0938 14.7707C28.0938 22.5966 34.685 28.9408 42.8157 28.9408Z" fill="#4C38C2"/>
<path opacity="0.2" d="M42.1195 19.7861C41.445 20.4353 40.5303 20.7999 39.5765 20.7999C38.6228 20.7999 37.708 20.4353 37.0336 19.7861C36.454 19.2281 36.0899 18.4962 36.0015 17.7117C35.9131 16.9273 36.1058 16.1373 36.5476 15.4727L35.7564 16.2496C35.082 16.8987 34.7031 17.7792 34.7031 18.6972C34.7031 19.6152 35.082 20.4957 35.7564 21.1448C36.4309 21.7939 37.3456 22.1586 38.2994 22.1586C39.2531 22.1586 40.1679 21.794 40.8423 21.1448L42.5956 19.3925L42.6223 19.2836L42.1195 19.7861Z" fill="black"/>
<path opacity="0.2" d="M43.7886 8.96021C44.5769 8.44344 45.5462 8.24924 46.4833 8.42034C47.4203 8.59145 48.2484 9.11385 48.7853 9.8726C49.2467 10.5248 49.4627 11.3092 49.3976 12.0958C49.3325 12.8823 48.9903 13.6239 48.4275 14.1977L49.3553 13.5763C50.1436 13.0595 50.6863 12.2625 50.8641 11.3605C51.0419 10.4586 50.8401 9.5256 50.3032 8.76684C49.7663 8.00808 48.9382 7.48568 48.0012 7.31458C47.0641 7.14347 46.0948 7.33767 45.3065 7.85445L43.2446 9.26149L43.1973 9.36373L43.7886 8.96021Z" fill="black"/>
<path d="M38.2985 22.592C37.5248 22.592 36.7685 22.3712 36.1252 21.9575C35.4819 21.5438 34.9806 20.9557 34.6845 20.2678C34.3884 19.5798 34.3109 18.8227 34.4619 18.0924C34.6128 17.362 34.9854 16.6912 35.5325 16.1646L38.8521 12.9047C39.2152 12.5546 39.6465 12.2769 40.1212 12.0873C40.5959 11.8977 41.1048 11.8 41.6187 11.7998C42.1327 11.7996 42.6416 11.8969 43.1165 12.0861C43.5914 12.2753 44.0229 12.5528 44.3863 12.9026C44.4454 12.9595 44.4787 13.0368 44.4787 13.1173C44.4787 13.1978 44.4454 13.275 44.3863 13.332C44.3271 13.3889 44.2469 13.4209 44.1632 13.4209C44.0796 13.4209 43.9993 13.3889 43.9402 13.332C43.3249 12.7398 42.4904 12.4071 41.6203 12.4071C40.7502 12.4071 39.9157 12.7398 39.3005 13.332C38.8129 14.9865 37.7594 16.1217 35.9808 16.5919C35.6757 16.8849 35.4335 17.2329 35.2681 17.616C35.1028 17.9992 35.0175 18.4099 35.0171 18.8248C35.0167 19.2397 35.1013 19.6506 35.266 20.034C35.4307 20.4174 35.6723 20.7658 35.9769 21.0593C36.2816 21.3528 36.6433 21.5857 37.0415 21.7446C37.4397 21.9034 37.8665 21.9853 38.2975 21.9853C38.7286 21.9854 39.1554 21.9036 39.5536 21.7449C39.9518 21.5861 40.3136 21.3533 40.6184 21.0598C40.5465 20.3811 40.7525 19.7431 42.3675 19.3116C42.3962 19.2828 42.4306 19.2597 42.4686 19.2436C42.5066 19.2276 42.5475 19.2189 42.589 19.2181C42.6305 19.2173 42.6717 19.2244 42.7104 19.2389C42.749 19.2535 42.7843 19.2752 42.8142 19.303C42.844 19.3307 42.868 19.3638 42.8845 19.4004C42.9011 19.437 42.91 19.4764 42.9107 19.5164C42.9114 19.5563 42.904 19.596 42.8887 19.6331C42.8735 19.6703 42.8508 19.7042 42.8219 19.7329L41.0686 21.4852C40.706 21.837 40.2744 22.1159 39.7988 22.3059C39.3233 22.4959 38.8133 22.5932 38.2985 22.592Z" fill="white"/>
<path d="M43.6885 17.9805C43.1746 17.9819 42.6655 17.8851 42.1907 17.6958C41.7159 17.5065 41.2848 17.2284 40.9225 16.8777C40.8633 16.8208 40.8301 16.7435 40.8301 16.663C40.8301 16.5824 40.8633 16.5052 40.9225 16.4483C40.9817 16.3913 41.0619 16.3594 41.1456 16.3594C41.2293 16.3594 41.3095 16.3914 41.3687 16.4483C41.6733 16.7416 42.035 16.9742 42.433 17.1329C42.831 17.2916 43.2576 17.3733 43.6885 17.3733C44.1193 17.3733 44.5459 17.2916 44.944 17.1329C45.342 16.9742 45.7037 16.7416 46.0083 16.4483C46.4287 14.0106 48.1428 13.6666 49.6327 12.9599C49.9374 12.6666 50.179 12.3185 50.3439 11.9354C50.5088 11.5523 50.5936 11.1416 50.5936 10.727C50.5936 10.3123 50.5088 9.90163 50.3439 9.51851C50.179 9.13539 49.9374 8.78727 49.6327 8.49404C49.328 8.20081 48.9664 7.96821 48.5683 7.80952C48.1703 7.65082 47.7437 7.56915 47.3128 7.56915C46.882 7.56915 46.4554 7.65083 46.0573 7.80953C45.6593 7.96823 45.2976 8.20083 44.9929 8.49407C44.5785 9.64499 44.1716 10.8095 42.9371 10.4728C42.9079 10.501 42.8731 10.5234 42.8348 10.5386C42.7965 10.5539 42.7555 10.5617 42.7141 10.5617C42.6304 10.5617 42.5502 10.5297 42.491 10.4728C42.4319 10.4159 42.3986 10.3386 42.3986 10.2581C42.3986 10.1776 42.4319 10.1004 42.491 10.0434L44.5468 8.06468C44.9101 7.71507 45.3413 7.43773 45.8159 7.24852C46.2904 7.0593 46.7991 6.96192 47.3128 6.96191C47.8265 6.96191 48.3351 7.0593 48.8097 7.24851C49.2843 7.43772 49.7155 7.71505 50.0788 8.06466C50.442 8.41428 50.7301 8.82933 50.9267 9.28613C51.1233 9.74293 51.2245 10.2325 51.2245 10.727C51.2245 11.2214 51.1233 11.711 50.9267 12.1678C50.7302 12.6246 50.442 13.0396 50.0788 13.3893L46.4544 16.8778C46.092 17.2285 45.661 17.5065 45.1862 17.6958C44.7114 17.8851 44.2024 17.9819 43.6885 17.9805Z" fill="white"/>
<path d="M55.6067 7.55976C54.9884 6.54904 54.2443 5.61467 53.391 4.77733C53.2006 4.59111 53.004 4.40889 52.8032 4.23177C52.6917 4.13362 52.5792 4.03744 52.4646 3.94329C52.2469 3.76315 52.0229 3.58904 51.7947 3.42106C49.2169 1.52318 46.0608 0.496478 42.8154 0.500009C34.6405 0.500009 27.9883 6.90186 27.9883 14.7713C27.9879 15.639 28.0699 16.505 28.2333 17.3583C28.2335 17.3631 28.2342 17.3679 28.2354 17.3725C28.3101 17.7642 28.4026 18.1509 28.5099 18.5304C29.2697 21.2095 30.8251 23.6169 32.9855 25.4576C35.1459 27.2983 37.8173 28.4923 40.6723 28.8932C43.5273 29.2941 46.4418 28.8844 49.0585 27.7145C51.6752 26.5446 53.8804 24.6652 55.4037 22.3068C55.6087 21.9889 55.8015 21.663 55.9821 21.329C57.1335 19.1904 57.703 16.8057 57.6374 14.3978C57.5718 11.9899 56.8731 9.6373 55.6067 7.55976ZM42.8154 28.8402C40.8957 28.8408 38.9947 28.4774 37.221 27.7706C35.4473 27.0638 33.8357 26.0275 32.4783 24.7209C31.1209 23.4144 30.0442 21.8632 29.3099 20.156C28.5756 18.4488 28.1979 16.6191 28.1986 14.7713C28.1986 7.01315 34.7562 0.702439 42.8154 0.702439C44.7657 0.703503 46.6961 1.08036 48.4927 1.81079C50.2893 2.54122 51.9158 3.61045 53.2764 4.95544C53.6312 5.30409 53.9661 5.67104 54.2796 6.05468C54.5899 6.43007 54.8795 6.82096 55.1471 7.22572C56.2627 8.91247 56.9916 10.8088 57.2854 12.7882C57.5791 14.7677 57.4309 16.7846 56.8506 18.7045C56.7213 19.1337 56.5699 19.5537 56.3995 19.9657C56.2281 20.3786 56.0378 20.7835 55.8275 21.1762C54.5976 23.4796 52.7331 25.4129 50.4381 26.7647C48.1431 28.1164 45.506 28.8345 42.8154 28.8402Z" fill="#3F3D56"/>
<path d="M62.9862 48.3713L62.0197 48.3634L61.5918 44.6914L63.0184 44.703L62.9862 48.3713Z" fill="#FFB6B6"/>
<path d="M63.2411 47.9421L62.9888 47.926L61.9593 47.8582L61.628 47.8369L61.6217 48.5019L60.078 49.51C60.0018 49.5598 59.9441 49.6318 59.9134 49.7155C59.8827 49.7991 59.8805 49.89 59.9073 49.9749C59.9341 50.0598 59.9884 50.1343 60.0622 50.1874C60.136 50.2405 60.2256 50.2694 60.3177 50.2701L62.239 50.2853L62.5755 49.6294L62.6985 50.2894L63.4241 50.2954L63.2411 47.9421Z" fill="#2F2E41"/>
<path d="M73.161 47.6919L72.2372 47.9653L70.6777 44.589L72.0413 44.1855L73.161 47.6919Z" fill="#FFB6B6"/>
<path d="M73.2725 47.209L73.0265 47.2667L72.0244 47.5005L71.7016 47.5764L71.9045 48.2131L70.7488 49.622C70.6986 49.6834 70.6674 49.7572 70.6587 49.8348C70.65 49.9125 70.6642 49.991 70.6996 50.0613C70.7351 50.1315 70.7903 50.1908 70.8591 50.2323C70.9278 50.2739 71.0073 50.2959 71.0885 50.296C71.1313 50.296 71.1738 50.2898 71.2147 50.2778L73.0518 49.7343L73.1664 49.0106L73.4913 49.6037L74.1844 49.3983L73.2725 47.209Z" fill="#2F2E41"/>
<path d="M61.0426 17.4951L59.1981 22.6544L59.1372 23.0673C58.6724 23.492 59.2563 23.632 59.0374 23.744C58.8185 23.856 58.6712 24.17 58.9662 24.2261C59.2612 24.2822 60.2124 44.4056 61.4669 45.1869C62.7215 45.9683 63.485 46.5335 63.2546 45.3894C63.1618 44.9284 63.2931 42.457 63.483 39.6699C63.5045 39.3541 63.8446 39.0197 63.5496 38.7126C63.2546 38.4055 63.5859 38.2034 63.6045 37.9486C63.8691 34.3092 64.1746 30.7162 64.1746 30.7162C64.1746 30.7162 66.1299 37.1795 66.6377 36.6791C67.1454 36.1788 66.9444 37.4107 67.0996 37.7788C67.2292 38.0864 66.676 38.6906 67.4891 38.6999C68.3021 38.7092 70.2116 44.9916 70.4053 44.9845C70.789 44.9704 71.8678 45.0102 72.5084 44.8833C72.8248 44.8206 71.4205 40.0642 70.2479 35.9569C70.1544 35.6293 69.6455 35.6217 69.9728 34.9893C70.3001 34.3569 68.6715 30.2652 68.8113 30.0759C69.1822 29.5737 69.3235 29.3553 68.9577 29.3224C68.5918 29.2895 68.4838 29.4827 68.464 28.9954C68.4442 28.5082 68.3811 27.3066 68.3811 27.3066C68.3811 27.3066 68.1161 22.5547 66.2605 19.9293L66.1023 18.3694L61.0426 17.4951Z" fill="#2F2E41"/>
<path d="M65.6499 7.64551L63.2039 7.98073L63.0563 9.6855L61.8493 11.5028C61.8493 11.5028 59.1664 13.3201 61.0375 16.1909C60.3254 18.6639 59.6175 21.0356 58.9425 22.6168C58.4168 25.7545 63.127 26.0552 68.5118 24.9448C68.5118 24.9448 68.4376 23.6031 67.9489 22.9582C67.4602 22.3132 67.7262 22.1723 67.7262 22.1723L67.3848 20.9674C67.578 19.2256 66.9256 19.0693 66.619 18.2646L67.5499 9.91489L65.6499 7.64551Z" fill="#E6E6E6"/>
<path d="M53.9065 22.2393C53.9324 22.0717 54.0253 21.9204 54.1653 21.8177C54.3053 21.7149 54.4815 21.6689 54.6563 21.6892C54.6917 21.6939 54.7267 21.7014 54.7609 21.7116L56.1778 19.8975L57.3871 20.2656L55.167 22.5488C55.112 22.6819 55.0127 22.7937 54.8846 22.8668C54.7566 22.9399 54.607 22.9701 54.4592 22.9528C54.3753 22.9421 54.2943 22.9157 54.2209 22.8749C54.1476 22.8341 54.0833 22.7798 54.0317 22.7152C53.9802 22.6505 53.9423 22.5766 53.9204 22.4979C53.8985 22.4191 53.8929 22.337 53.904 22.2562C53.9047 22.2505 53.9056 22.2449 53.9065 22.2393Z" fill="#FFB6B6"/>
<path d="M66.4932 10.9444C66.4585 10.9029 66.4207 10.8624 66.3807 10.8229C66.103 10.5474 65.7453 10.359 65.3544 10.2824C64.9636 10.2059 64.5578 10.2447 64.1903 10.3938C64.1546 10.4079 64.1188 10.4241 64.0841 10.4403C62.8275 11.0344 62.1492 11.4302 62.0672 11.6154C62.0388 11.6782 62.0146 11.7399 61.9904 11.7996C61.9673 11.8583 61.9452 11.914 61.9221 11.9646C61.8253 12.1812 61.7139 12.3158 61.4299 12.2551C61.3358 12.2329 61.245 12.1993 61.1597 12.1549C61.1208 12.1367 61.085 12.1175 61.0514 12.0992C60.9294 12.0345 60.841 11.9879 60.7811 12.0304C60.7233 12.0719 60.7212 12.1772 60.7738 12.4211C60.7912 12.5229 60.7883 12.627 60.7654 12.7278C60.6958 13.0218 60.587 13.3059 60.4415 13.5729C60.2235 13.9915 59.9783 14.3965 59.7075 14.7855L57.2058 18.2187L57.0365 18.4505L56.8514 18.7045L55.375 20.7309L55.4623 20.8168L55.8282 21.1762L55.9092 21.2562L55.9828 21.329L56.1732 21.5163L56.3519 21.6914L60.3405 18.5638L60.7853 18.2146L61.5824 17.5891L63.2155 16.3088L66.3061 13.5557C66.5012 13.3833 66.6581 13.1748 66.7674 12.9426C66.8767 12.7104 66.9362 12.4593 66.9422 12.2045C66.9422 12.1873 66.9433 12.1711 66.9433 12.1539C66.9445 11.7125 66.7852 11.2847 66.4932 10.9444Z" fill="#E6E6E6"/>
<path d="M64.1805 7.58282C65.69 7.58282 66.9137 6.40498 66.9137 4.95205C66.9137 3.49912 65.69 2.32129 64.1805 2.32129C62.671 2.32129 61.4473 3.49912 61.4473 4.95205C61.4473 6.40498 62.671 7.58282 64.1805 7.58282Z" fill="#FFB6B6"/>
<path d="M67.8041 8.60058C68.1709 9.10589 68.4163 9.68345 68.5225 10.2914C68.2268 10.4734 67.8827 10.569 67.5318 10.5666C67.5199 10.5224 67.508 10.4782 67.4943 10.4339C67.3927 10.0914 67.2414 9.76431 67.045 9.46236C67.0719 9.78796 67.026 10.1153 66.9105 10.4225C66.725 10.3413 66.5263 10.292 66.3232 10.2766C66.1578 10.2766 65.9946 10.3136 65.8466 10.3848C65.6747 9.83591 65.5164 9.33129 65.4041 8.96921C65.4007 9.87687 64.0185 10.6682 62.5104 10.5535C62.4559 10.5208 63.0023 9.0282 62.9495 8.99379C62.8287 8.91679 62.7112 8.83323 62.5938 8.75131C63.0874 8.01732 63.6236 7.2309 63.5317 7.11295C63.5385 7.25876 62.9972 7.95998 62.4082 8.62188C62.0814 8.39087 63.9385 4.63245 63.021 4.32772C63.0057 4.46043 62.8031 4.46043 62.5563 4.43258C62.4912 4.21361 62.3944 4.00457 62.2687 3.81162C62.285 4.00598 62.2607 4.20153 62.1972 4.38669C61.9534 4.38676 61.7104 4.41147 61.4721 4.46042C61.4169 4.3769 61.3561 4.29698 61.2899 4.22122C61.2964 4.31356 61.2936 4.40629 61.2814 4.4981C61.038 4.54889 60.8371 4.60787 60.8082 4.65539C60.6176 4.58821 60.9427 4.28511 60.8235 4.12783C60.5205 3.73463 60.9699 3.1612 61.2542 2.75487C61.838 1.92259 63.1198 1.63423 64.027 2.13393C64.0679 1.99795 64.2772 1.90784 64.5462 1.84722C64.6601 1.82304 64.7768 1.81258 64.8934 1.81609C66.0509 1.83575 67.6578 2.75487 67.7207 3.86733C67.7258 3.97874 67.7343 4.09998 67.7429 4.22941C67.8246 5.47457 67.7241 6.62307 68.6076 7.534C68.9276 7.86331 68.931 9.42304 68.8084 10.2258C68.4901 9.90308 68.2637 8.6481 67.8041 8.60058Z" fill="#2F2E41"/>
<path d="M37.7002 15.1268C37.8745 15.1268 38.0157 14.9909 38.0157 14.8232C38.0157 14.6555 37.8745 14.5195 37.7002 14.5195C37.526 14.5195 37.3848 14.6555 37.3848 14.8232C37.3848 14.9909 37.526 15.1268 37.7002 15.1268Z" fill="#4C38C2"/>
<path d="M47.6905 14.9237C47.8647 14.9237 48.0059 14.7877 48.0059 14.6201C48.0059 14.4524 47.8647 14.3164 47.6905 14.3164C47.5162 14.3164 47.375 14.4524 47.375 14.6201C47.375 14.7877 47.5162 14.9237 47.6905 14.9237Z" fill="#4C38C2"/>
<path d="M17.6615 6.04669C17.4214 6.62221 16.7441 7.75399 16.6523 8.3714L16.6936 8.33231C16.7724 8.46183 16.8619 8.58501 16.9613 8.70066C17.1394 8.52061 17.3545 8.37824 17.5929 8.28262C17.4628 8.53974 17.3874 8.81935 17.3712 9.10496C17.6268 9.87616 18.8085 9.53273 19.5008 9.44852C20.1922 10.2097 21.1121 10.4084 22.3166 9.97074C22.6535 10.0041 23.0306 10.0244 23.2667 9.83278C23.5028 9.64118 23.3622 9.28635 23.4892 9.01797C24.3939 7.10633 23.559 6.41662 22.8496 5.54982C22.6935 5.35906 22.6941 5.0744 22.5042 4.8924C22.2406 4.64013 21.8366 4.56253 21.4641 4.50037C21.5609 4.50528 21.6573 4.48613 21.7442 4.44477C21.831 4.4034 21.9053 4.34122 21.96 4.2642C22.0079 4.1866 22.0327 4.09777 22.0315 4.0075C22.0303 3.91723 22.0032 3.82904 21.9532 3.75264C21.82 3.54006 21.5432 3.41645 21.2761 3.38557C21.013 3.36837 20.7487 3.39024 20.4925 3.4504C20.3266 3.47141 20.1659 3.52085 20.018 3.59639C19.9483 3.63221 19.8915 3.68768 19.8554 3.75537C19.8193 3.82307 19.8055 3.89977 19.8159 3.97521C19.8381 4.04488 19.8764 4.10882 19.9279 4.16225C19.9794 4.21568 20.0428 4.25724 20.1133 4.28381C20.2208 4.32756 20.3339 4.35736 20.4496 4.37242C19.9183 4.30605 19.3785 4.39698 18.9022 4.63311C18.3052 4.9396 17.9024 5.47147 17.6615 6.04669Z" fill="#2F2E41"/>
<path d="M20.8937 9.2729C22.0722 9.2729 23.0276 8.35333 23.0276 7.21897C23.0276 6.08462 22.0722 5.16504 20.8937 5.16504C19.7152 5.16504 18.7598 6.08462 18.7598 7.21897C18.7598 8.35333 19.7152 9.2729 20.8937 9.2729Z" fill="#A0616A"/>
<path d="M18.8407 6.11746C18.9644 6.47738 19.318 6.59335 19.6448 6.66569C19.7479 6.68881 19.8515 6.71035 19.9562 6.72951C19.9948 6.68306 20.0358 6.63753 20.0787 6.59449C20.2568 6.41445 20.472 6.27208 20.7104 6.17645C20.6073 6.37956 20.5388 6.59729 20.5074 6.82132C20.705 6.84891 20.9037 6.87146 21.1034 6.88897C21.2724 6.92359 21.4488 6.89439 21.5961 6.80742C21.7433 6.72044 21.8503 6.58232 21.8948 6.42162C22.0766 6.70784 22.2916 6.9774 22.5857 7.0911C22.7538 7.14925 22.9369 7.15403 23.1081 7.10474C23.2792 7.05545 23.4295 6.95468 23.5368 6.8172C23.7064 6.59293 23.8239 6.33625 23.8816 6.06451C23.965 5.74578 24.0114 5.37862 23.8475 5.1764C23.7163 5.01273 23.4899 5.0098 23.2809 5.02432C22.8198 5.05836 22.3636 5.13797 21.9195 5.2619L21.8819 5.34327C21.9582 4.90189 21.7926 4.47722 21.4863 4.3262C21.2796 4.22522 21.031 4.24215 20.7895 4.26263C20.4792 4.27596 20.1727 4.33302 19.8796 4.432C19.5434 4.55647 19.2554 4.77789 19.0549 5.06595C18.8405 5.37929 18.734 5.80663 18.8407 6.11746Z" fill="#2F2E41"/>
<path d="M21.8817 4.1983C21.8607 4.19232 21.9152 4.2 21.8963 4.20049C21.9057 4.19997 21.9151 4.19871 21.9242 4.19673C21.9258 4.19642 21.9471 4.1899 21.9329 4.1947C21.9646 4.18558 21.9929 4.16782 22.0143 4.14357C22.0645 4.08391 22.1038 4.01654 22.1307 3.9443C22.1646 3.84884 22.2191 3.76136 22.2906 3.6876C22.3109 3.66798 22.3357 3.65324 22.3631 3.64458C22.3904 3.63592 22.4194 3.63358 22.4479 3.63776C22.4763 3.64194 22.5033 3.65251 22.5267 3.66863C22.5501 3.68474 22.5693 3.70594 22.5826 3.73049C22.6095 3.82524 22.6003 3.92617 22.5565 4.01491C22.5259 4.10521 22.4804 4.19016 22.4217 4.26651C22.3233 4.39134 22.1894 4.48594 22.0361 4.53878C21.8588 4.60079 21.6653 4.60611 21.4846 4.55395C21.4607 4.54441 21.4402 4.5284 21.4256 4.50785C21.411 4.48731 21.4029 4.46312 21.4024 4.43824C21.4018 4.41336 21.4088 4.38886 21.4224 4.36772C21.4361 4.34659 21.4558 4.32973 21.4792 4.3192L21.7807 4.20042C21.7966 4.1937 21.8137 4.19005 21.831 4.18969C21.8484 4.18932 21.8656 4.19225 21.8817 4.1983C21.8979 4.20435 21.9127 4.2134 21.9252 4.22494C21.9377 4.23648 21.9478 4.25028 21.9547 4.26555C21.9617 4.28083 21.9655 4.29728 21.9659 4.31396C21.9663 4.33065 21.9632 4.34724 21.9569 4.36279C21.9507 4.37835 21.9413 4.39256 21.9293 4.40461C21.9173 4.41667 21.9029 4.42633 21.8871 4.43305L21.5856 4.55183L21.5803 4.31708C21.6179 4.32753 21.6566 4.3339 21.6957 4.33607C21.7374 4.34009 21.7795 4.33838 21.8207 4.331C21.8601 4.32602 21.8989 4.31691 21.9363 4.30385C21.9603 4.29542 21.9838 4.28584 22.0068 4.27512C22.0151 4.27122 22.0234 4.26718 22.0315 4.26298C22.0309 4.26328 22.066 4.24362 22.0506 4.25286C22.0896 4.22888 22.1262 4.20145 22.1599 4.17093C22.1718 4.1601 22.1828 4.14836 22.1927 4.13582C22.2099 4.11551 22.2258 4.09425 22.2404 4.07216C22.2701 4.02536 22.2936 3.97519 22.3104 3.9228C22.3181 3.90078 22.3246 3.87839 22.3298 3.85572C22.3313 3.84328 22.3336 3.83094 22.3368 3.81881C22.348 3.78989 22.3347 3.83569 22.3475 3.84822L22.4031 3.88764C22.4136 3.89063 22.4246 3.89132 22.4353 3.88967C22.4461 3.88801 22.4563 3.88405 22.4652 3.87807C22.4718 3.86915 22.4704 3.87063 22.4609 3.88251C22.4499 3.89648 22.4398 3.91112 22.4307 3.92632C22.4108 3.96212 22.3928 3.99886 22.3768 4.03642C22.3436 4.11628 22.3017 4.19252 22.2517 4.26381C22.2027 4.33593 22.1313 4.39131 22.0477 4.42209C21.9641 4.45286 21.8725 4.45744 21.786 4.43518C21.7536 4.42274 21.7275 4.39853 21.7134 4.36775C21.6994 4.33698 21.6984 4.30211 21.7108 4.27068C21.7241 4.23971 21.7493 4.21487 21.7812 4.20138C21.813 4.18788 21.8491 4.18678 21.8817 4.1983Z" fill="#2F2E41"/>
</g>
<defs>
<clipPath id="clip0_2304_348">
<rect width="76" height="50" fill="white" transform="translate(0.666016 0.5)"/>
</clipPath>
</defs>
</svg>
