<svg width="24" height="24" viewBox="0 0 24 24" fill="none" xmlns="http://www.w3.org/2000/svg">
<path d="M18.1336 11C18.7155 16.3755 21 18 21 18H3C3 18 6 15.8667 6 8.4C6 6.70261 6.63214 5.07475 7.75736 3.87452C8.88258 2.67428 10.4087 2 12 2C12.3373 2 12.6717 2.0303 13 2.08949" stroke="#666666" stroke-width="1.5" stroke-linecap="round" stroke-linejoin="round"/>
<path d="M19 8C20.6569 8 22 6.65685 22 5C22 3.34315 20.6569 2 19 2C17.3431 2 16 3.34315 16 5C16 6.65685 17.3431 8 19 8Z" stroke="#666666" stroke-width="1.5" stroke-linecap="round" stroke-linejoin="round"/>
<path d="M13.7295 21C13.5537 21.3031 13.3014 21.5547 12.9977 21.7295C12.6941 21.9044 12.3499 21.9965 11.9995 21.9965C11.6491 21.9965 11.3049 21.9044 11.0013 21.7295C10.6977 21.5547 10.4453 21.3031 10.2695 21" stroke="#666666" stroke-width="1.5" stroke-linecap="round" stroke-linejoin="round"/>
</svg>
